#N canvas 138 172 613 458 10;
#X obj 90 23 inlet~;
#X obj 92 313 outlet~;
#X obj 135 265 bp~ 80 1;
#X text 196 262 ← filtre passe bande 80 Hz Q = 1;
#X obj 174 25 inlet;
#X obj 174 71 select 1;
#X floatatom 219 138 2 0 0 0 - - -;
#X text 198 183 ← filtre passe haut 30 ou 40 Hz;
#X text 230 70 ← sélection 30 ou 40;
#X msg 174 104 40, f 2;
#X msg 219 104 30, f 2;
#X obj 135 186 hip~ 30;
#X connect 0 0 11 0;
#X connect 2 0 1 0;
#X connect 4 0 5 0;
#X connect 5 0 9 0;
#X connect 5 1 10 0;
#X connect 9 0 6 0;
#X connect 9 0 11 1;
#X connect 10 0 6 0;
#X connect 10 0 11 1;
#X connect 11 0 2 0;
