#N canvas 514 129 410 371 10;
#X declare -lib iemlib;
#N canvas 138 375 531 389 subpatch 0;
#X obj 16 261 bpd-lampe~;
#X obj 172 261 bpd-lampe~;
#X obj 17 134 *~;
#X obj 172 134 *~;
#X obj 16 357 outlet~;
#X obj 172 357 outlet~;
#X obj 32 92 inlet~;
#X obj 187 92 inlet~;
#X obj 286 247 samplerate~;
#X obj 286 225 bng 15 250 50 1 empty empty empty 17 7 0 10 -262144
-1 -1;
#X floatatom 286 297 12 0 0 0 - - -;
#X obj 241 134 inlet;
#X obj 286 272 / 16;
#X text 217 204 Configuration du filtre anti-repliement;
#X text 314 224 ← initialisation;
#X text 25 307 Anti-repliement;
#X text 273 14 Suréchantillonnage *8;
#X text 326 273 ← FNyquist / Suréchantillonnage;
#X obj 11 12 cnv 15 208 66 empty empty Amplification à lampe 20
12 0 14 -261682 -66577 0;
#X obj 26 37 hsl 180 15 1 50 1 1 empty empty empty -2 -8 0 10 -262144
-1 -1 8200 1;
#X floatatom 23 57 5 0 0 0 - - -;
#X obj 16 327 iemlib/lp3_butt~ 22050;
#X obj 172 327 iemlib/lp3_butt~ 22050;
#X obj 275 34 block~ 512 1 8;
#X obj 330 92 outlet;
#X connect 0 0 21 0;
#X connect 1 0 22 0;
#X connect 2 0 0 0;
#X connect 3 0 1 0;
#X connect 6 0 2 1;
#X connect 7 0 3 1;
#X connect 8 0 12 0;
#X connect 9 0 8 0;
#X connect 11 0 0 0;
#X connect 11 0 1 0;
#X connect 12 0 10 0;
#X connect 12 0 21 1;
#X connect 12 0 22 1;
#X connect 19 0 20 0;
#X connect 19 0 24 0;
#X connect 20 0 2 0;
#X connect 20 0 3 0;
#X connect 21 0 4 0;
#X connect 22 0 5 0;
#X coords 0 -1 1 1 210 70 2 10 10;
#X restore 28 133 pd subpatch;
#X obj 28 216 dac~ 1 2;
#X obj 27 102 adc~ 1 2;
#X msg 290 16 model T1_12AX7;
#X msg 290 34 model T2_12AX7;
#X msg 290 52 model T3_12AX7;
#X msg 290 70 model T1_12AT7;
#X msg 290 88 model T2_12AT7;
#X msg 290 106 model T3_12AT7;
#X msg 290 124 model T1_12AU7;
#X msg 290 142 model T2_12AU7;
#X msg 290 160 model T3_12AU7;
#X msg 290 178 model T1_6V6;
#X msg 290 196 model T2_6V6;
#X msg 290 214 model T3_6V6;
#X msg 290 232 model T1_6DJ8;
#X msg 290 250 model T2_6DJ8;
#X msg 290 268 model T3_6DJ8;
#X msg 290 286 model T1_6C16;
#X msg 290 304 model T2_6C16;
#X msg 290 322 model T3_6C16;
#X obj 28 322 declare -lib iemlib;
#X text 26 302 Bibliothèque externe (filtres);
#X connect 0 0 1 0;
#X connect 0 1 1 1;
#X connect 2 0 0 0;
#X connect 2 1 0 1;
#X connect 3 0 0 2;
#X connect 4 0 0 2;
#X connect 5 0 0 2;
#X connect 6 0 0 2;
#X connect 7 0 0 2;
#X connect 8 0 0 2;
#X connect 9 0 0 2;
#X connect 10 0 0 2;
#X connect 11 0 0 2;
#X connect 12 0 0 2;
#X connect 13 0 0 2;
#X connect 14 0 0 2;
#X connect 15 0 0 2;
#X connect 16 0 0 2;
#X connect 17 0 0 2;
#X connect 18 0 0 2;
#X connect 19 0 0 2;
#X connect 20 0 0 2;
