#N canvas 528 362 808 388 10;
#X obj 125 71 adc~;
#X obj 141 346 dac~;
#X obj 174 249 alembic~;
#X floatatom 183 165 5 -1 1 0 - - -;
#X floatatom 250 168 5 -1 1 0 - - -;
#X floatatom 312 168 5 -1 1 0 - - -;
#X floatatom 385 170 5 -1 1 0 - - -;
#X floatatom 462 171 5 -1 1 0 - - -;
#X obj 186 143 hsl 50 15 0 1 0 1 empty empty empty -2 -8 0 10 -262144
-1 -1 2500 1;
#X obj 251 143 hsl 50 15 0 1 0 1 empty empty empty -2 -8 0 10 -262144
-1 -1 2450 1;
#X obj 316 141 hsl 50 15 0 1 0 1 empty empty empty -2 -8 0 10 -262144
-1 -1 1150 1;
#X obj 390 137 hsl 50 15 0 1 0 1 empty empty empty -2 -8 0 10 -262144
-1 -1 2400 1;
#X obj 469 140 hsl 50 15 0 1 0 1 empty empty empty -2 -8 0 10 -262144
-1 -1 1350 1;
#X msg 183 119 0.5;
#X msg 246 118 0.5;
#X msg 314 116 0.5;
#X msg 387 112 0.5;
#X msg 466 110 0.5;
#X connect 0 0 2 0;
#X connect 2 0 1 0;
#X connect 3 0 2 1;
#X connect 4 0 2 2;
#X connect 5 0 2 3;
#X connect 6 0 2 4;
#X connect 7 0 2 5;
#X connect 8 0 3 0;
#X connect 9 0 4 0;
#X connect 10 0 5 0;
#X connect 11 0 6 0;
#X connect 12 0 7 0;
#X connect 13 0 8 0;
#X connect 14 0 9 0;
#X connect 15 0 10 0;
#X connect 16 0 11 0;
#X connect 17 0 12 0;
