#N canvas 730 258 450 598 10;
#X obj 206 301 dac~;
#X obj 297 218 bng 15 250 50 0 empty empty empty 17 7 0 10 -262144
-1 -1;
#X obj 282 248 sgvisu~ spectre;
#X obj 306 276 bng 15 250 50 0 empty empty empty 17 7 0 10 -262144
-1 -1;
#X obj 307 336 bng 15 250 50 0 empty empty empty 17 7 0 10 -262144
-1 -1;
#X obj 292 366 ogvisu~ oscillo;
#X obj 291 306 wfvisu~ water;
#X obj 205 145 adc~;
#X connect 1 0 2 0;
#X connect 3 0 6 0;
#X connect 4 0 5 0;
#X connect 7 0 2 1;
#X connect 7 0 6 1;
#X connect 7 0 5 1;
#X connect 7 0 0 0;
#X connect 7 1 2 0;
#X connect 7 1 6 0;
#X connect 7 1 5 0;
#X connect 7 1 0 1;
